<?xml version="1.0" encoding="utf-8"?>
<!-- Generator: Adobe Illustrator 16.0.3, SVG Export Plug-In . SVG Version: 6.00 Build 0)  -->
<!DOCTYPE svg PUBLIC "-//W3C//DTD SVG 1.1//EN" "http://www.w3.org/Graphics/SVG/1.1/DTD/svg11.dtd">
<svg version="1.1" xmlns="http://www.w3.org/2000/svg" xmlns:xlink="http://www.w3.org/1999/xlink" x="0px" y="0px" width="300px"
	 height="150px" viewBox="0 0 300 150" enable-background="new 0 0 300 150" xml:space="preserve">
<g id="Layer_3" display="none">
	<rect y="-75" display="inline" fill="#FC03F6" width="300" height="300"/>
</g>
<g id="Layer_2" display="none">
	
		<image display="inline" overflow="visible" width="736" height="552" xlink:href="3f3ab3e8400a9d571bd50759abc9850e--red-kite-logo-google.jpg"  transform="matrix(1 0 0 1 -218 -201)">
	</image>
</g>
<g id="Layer_1" display="none">
	<g display="inline">
		
			<rect x="51.533" y="39.341" transform="matrix(0.7071 0.7071 -0.7071 0.7071 57.6825 -31.0351)" fill="#FF7C24" width="29.541" height="29.541"/>
		
			<rect x="72.422" y="60.229" transform="matrix(0.7071 0.7071 -0.7071 0.7071 78.5711 -39.6875)" fill="#6666CC" width="29.541" height="29.541"/>
		
			<rect x="72.423" y="18.452" transform="matrix(0.7071 0.7071 -0.7071 0.7071 49.0302 -51.9241)" fill="#F92323" width="29.541" height="29.541"/>
		
			<rect x="51.532" y="81.118" transform="matrix(0.7071 0.7071 -0.7071 0.7071 87.2232 -18.7981)" fill="#69BE4E" width="29.541" height="29.541"/>
		
			<rect x="72.421" y="102.007" transform="matrix(0.7071 0.7071 -0.7071 0.7071 108.1135 -27.4501)" fill="#3EA9DB" width="29.541" height="29.541"/>
		
			<rect x="30.644" y="60.229" transform="matrix(0.7071 0.7071 -0.7071 0.7071 66.3345 -10.1458)" fill="#FFE41D" width="29.541" height="29.541"/>
		<text transform="matrix(1 0 0 1 135.6641 97.8564)" fill="#FFFFFF" font-family="'Gadugi-Bold'" font-size="74.8039">Kite</text>
	</g>
</g>
<g id="outlines">
	<g>
		
			<rect x="51.533" y="39.341" transform="matrix(0.7071 0.7071 -0.7071 0.7071 57.6825 -31.0351)" fill="#FF7C24" width="29.541" height="29.541"/>
		
			<rect x="72.422" y="60.229" transform="matrix(0.7071 0.7071 -0.7071 0.7071 78.5711 -39.6875)" fill="#6666CC" width="29.541" height="29.541"/>
		
			<rect x="72.423" y="18.452" transform="matrix(0.7071 0.7071 -0.7071 0.7071 49.0302 -51.9241)" fill="#F92323" width="29.541" height="29.541"/>
		
			<rect x="51.532" y="81.118" transform="matrix(0.7071 0.7071 -0.7071 0.7071 87.2232 -18.7981)" fill="#69BE4E" width="29.541" height="29.541"/>
		
			<rect x="72.421" y="102.007" transform="matrix(0.7071 0.7071 -0.7071 0.7071 108.1135 -27.4501)" fill="#3EA9DB" width="29.541" height="29.541"/>
		
			<rect x="30.644" y="60.229" transform="matrix(0.7071 0.7071 -0.7071 0.7071 66.3345 -10.1458)" fill="#FFE41D" width="29.541" height="29.541"/>
		<g>
			<path fill="#FFFFFF" d="M185.192,97.856H170.29l-15.268-22.755c-0.292-0.438-0.755-1.4-1.388-2.886h-0.183v25.641h-11.798V45.479
				h11.798v24.764h0.183c0.292-0.681,0.778-1.655,1.461-2.922l14.464-21.842h14.063l-18.263,24.983L185.192,97.856z"/>
			<path fill="#FFFFFF" d="M194.908,54.538c-1.948,0-3.543-0.578-4.785-1.735c-1.242-1.156-1.862-2.575-1.862-4.255
				c0-1.729,0.62-3.141,1.862-4.237c1.242-1.096,2.837-1.644,4.785-1.644c1.972,0,3.573,0.548,4.803,1.644
				c1.229,1.096,1.845,2.508,1.845,4.237c0,1.753-0.615,3.19-1.845,4.31S196.88,54.538,194.908,54.538z M200.605,97.856h-11.542
				V60.455h11.542V97.856z"/>
			<path fill="#FFFFFF" d="M232.931,97.418c-1.704,0.9-4.273,1.352-7.707,1.352c-8.133,0-12.199-4.225-12.199-12.674V68.965h-6.063
				v-8.51h6.063v-8.072l11.506-3.287v11.359h8.4v8.51h-8.4v15.121c0,3.896,1.546,5.845,4.639,5.845c1.217,0,2.471-0.353,3.762-1.06
				V97.418z"/>
			<path fill="#FFFFFF" d="M273.035,82.442h-24.398c0.389,5.431,3.811,8.146,10.264,8.146c4.114,0,7.73-0.974,10.848-2.922v8.327
				c-3.458,1.852-7.95,2.776-13.478,2.776c-6.039,0-10.727-1.674-14.063-5.022c-3.336-3.348-5.004-8.017-5.004-14.007
				c0-6.209,1.802-11.128,5.405-14.757c3.604-3.628,8.036-5.442,13.296-5.442c5.454,0,9.673,1.62,12.656,4.858
				c2.982,3.239,4.474,7.634,4.474,13.186V82.442z M262.333,75.357c0-5.357-2.167-8.036-6.501-8.036
				c-1.851,0-3.452,0.767-4.803,2.301c-1.352,1.534-2.174,3.446-2.466,5.735H262.333z"/>
		</g>
	</g>
</g>
</svg>
